<svg width="3" height="10" viewBox="0 0 3 10" fill="none" xmlns="http://www.w3.org/2000/svg">
<path d="M1.42534 9.34934C1.13734 9.34934 0.889336 9.24934 0.681336 9.04934C0.481336 8.84134 0.381336 8.59334 0.381336 8.30534C0.381336 8.01734 0.481336 7.77334 0.681336 7.57334C0.889336 7.37334 1.13734 7.27334 1.42534 7.27334C1.71334 7.27334 1.95734 7.37334 2.15734 7.57334C2.35734 7.77334 2.45734 8.01734 2.45734 8.30534C2.45734 8.59334 2.35734 8.84134 2.15734 9.04934C1.95734 9.24934 1.71334 9.34934 1.42534 9.34934ZM0.609336 3.15734V0.685344H2.22934V3.15734L2.06134 6.32534H0.777336L0.609336 3.15734Z" fill="#274FED"/>
</svg>
